<svg width="252" height="65" viewBox="0 0 252 65" fill="none" xmlns="http://www.w3.org/2000/svg">
<path d="M19.7888 10.0313L3.8982 37.0635C2.98331 38.6199 4.884 40.2974 6.36219 39.2382L25.1826 25.7524C25.7237 25.3646 26.4468 25.3267 27.0269 25.6556L38.1686 31.9735C41.4075 33.8101 45.5492 32.7202 47.4192 29.539L63.3098 2.50683C64.2247 0.950471 62.324 -0.727023 60.8458 0.332184L42.0255 13.818C41.4843 14.2057 40.7613 14.2437 40.1811 13.9147L29.0395 7.59687C25.8005 5.76023 21.6589 6.85017 19.7888 10.0313Z" fill="black"/>
<path d="M0.464514 59.9068L5.20012 53.3232H7.27916L2.54356 59.9068H0.464514ZM0.464514 61.126V59.9068L1.77354 59.586H7.17649V61.126H0.464514ZM0.73402 53.644V52.104H7.27916V53.3232L5.9573 53.644H0.73402ZM8.46827 61.126V54.9274H10.1623V61.126H8.46827ZM9.31529 53.9264C9.04151 53.9264 8.81478 53.8365 8.63511 53.6569C8.45544 53.4686 8.36561 53.2376 8.36561 52.9638C8.36561 52.6986 8.45544 52.4719 8.63511 52.2837C8.81478 52.0954 9.04151 52.0013 9.31529 52.0013C9.59763 52.0013 9.82436 52.0954 9.99547 52.2837C10.1751 52.4719 10.265 52.6986 10.265 52.9638C10.265 53.2376 10.1751 53.4686 9.99547 53.6569C9.82436 53.8365 9.59763 53.9264 9.31529 53.9264ZM11.4848 61.126V57.6096C11.4848 57.0535 11.6046 56.5658 11.8441 56.1466C12.0922 55.7188 12.4302 55.3851 12.858 55.1456C13.2858 54.906 13.7863 54.7862 14.3595 54.7862C14.9327 54.7862 15.4332 54.906 15.861 55.1456C16.2974 55.3766 16.6311 55.706 16.8621 56.1337C17.1016 56.553 17.2214 57.0449 17.2214 57.6096V61.126H15.5402V57.6866C15.5402 57.2759 15.4375 56.9508 15.2322 56.7113C15.0354 56.4631 14.7445 56.3391 14.3595 56.3391C13.9745 56.3391 13.6793 56.4631 13.474 56.7113C13.2772 56.9508 13.1788 57.2759 13.1788 57.6866V61.126H11.4848ZM20.9189 63.8596C20.3713 63.8596 19.8751 63.7569 19.4302 63.5516C18.9853 63.3548 18.6302 63.0767 18.365 62.7174C18.1083 62.358 17.98 61.9474 17.98 61.4854C17.98 61.126 18.0313 60.8308 18.134 60.5998C18.2367 60.3688 18.3907 60.1464 18.596 59.9325L19.8665 60.7538C19.781 60.8308 19.7168 60.9207 19.674 61.0234C19.6312 61.126 19.6099 61.2544 19.6099 61.4084C19.6099 61.6907 19.7254 61.9132 19.9564 62.0757C20.1959 62.2468 20.521 62.3324 20.9317 62.3324C21.3681 62.3324 21.706 62.2297 21.9456 62.0244C22.1937 61.819 22.3177 61.5324 22.3177 61.1645C22.3177 60.925 22.2579 60.7111 22.1381 60.5228C22.0268 60.3346 21.8643 60.1892 21.6504 60.0865C21.4451 59.9753 21.2098 59.9197 20.9445 59.9197C20.4654 59.9197 20.0291 59.8127 19.6355 59.5988C19.2505 59.3764 18.9425 59.0726 18.7115 58.6876C18.4891 58.3026 18.3778 57.8663 18.3778 57.3786C18.3778 56.8738 18.4933 56.4289 18.7243 56.0439C18.9553 55.6589 19.2676 55.3552 19.6612 55.1327C20.0633 54.9103 20.5168 54.7991 21.0215 54.7991C21.5178 54.7991 21.9627 54.906 22.3562 55.1199C22.7498 55.3338 23.0621 55.6247 23.2931 55.9926C23.5327 56.3605 23.6524 56.7797 23.6524 57.2503C23.6524 57.7123 23.5412 58.123 23.3188 58.4823C23.0963 58.8416 22.7926 59.124 22.4076 59.3293C22.0226 59.5261 21.582 59.6245 21.0857 59.6245L21.0344 58.7133C21.6076 58.7219 22.1081 58.8374 22.5359 59.0598C22.9637 59.2823 23.2974 59.586 23.5369 59.971C23.7851 60.3475 23.9091 60.7795 23.9091 61.2672C23.9091 61.7805 23.7851 62.2297 23.5369 62.6147C23.2974 63.0083 22.9509 63.312 22.4974 63.5259C22.0525 63.7484 21.5263 63.8596 20.9189 63.8596ZM21.0215 58.4566C21.244 58.4566 21.4365 58.4139 21.5991 58.3283C21.7616 58.2342 21.89 58.1058 21.9841 57.9433C22.0782 57.7722 22.1252 57.5839 22.1252 57.3786C22.1252 57.1562 22.0782 56.9679 21.9841 56.8139C21.89 56.6514 21.7616 56.523 21.5991 56.4289C21.4365 56.3348 21.244 56.2878 21.0215 56.2878C20.7991 56.2878 20.6023 56.3348 20.4312 56.4289C20.2686 56.523 20.1403 56.6514 20.0462 56.8139C19.9521 56.9679 19.905 57.1562 19.905 57.3786C19.905 57.5839 19.9521 57.7722 20.0462 57.9433C20.1403 58.1058 20.2686 58.2342 20.4312 58.3283C20.6023 58.4139 20.7991 58.4566 21.0215 58.4566ZM22.8568 56.5188L21.8557 55.5177L23.3188 54.0547L24.3198 55.0686L22.8568 56.5188ZM32.0445 61.2544C31.3857 61.2544 30.774 61.1389 30.2093 60.9079C29.6446 60.6683 29.1484 60.3389 28.7206 59.9197C28.3014 59.4919 27.9763 58.9956 27.7453 58.431C27.5228 57.8663 27.4116 57.2588 27.4116 56.6086C27.4116 55.9584 27.5228 55.3509 27.7453 54.7862C27.9763 54.2215 28.3014 53.7296 28.7206 53.3104C29.1484 52.8911 29.6404 52.5617 30.1965 52.3222C30.7612 52.0826 31.3772 51.9628 32.0445 51.9628C32.7632 51.9628 33.3963 52.0826 33.9439 52.3222C34.4915 52.5532 34.9749 52.874 35.3941 53.2847L34.2134 54.4654C33.9653 54.1916 33.6616 53.9777 33.3022 53.8237C32.9429 53.6697 32.5236 53.5927 32.0445 53.5927C31.6253 53.5927 31.2403 53.6654 30.8895 53.8109C30.5473 53.9478 30.2478 54.1531 29.9911 54.4269C29.7345 54.6921 29.5377 55.0129 29.4008 55.3894C29.2639 55.7573 29.1955 56.1637 29.1955 56.6086C29.1955 57.062 29.2639 57.4727 29.4008 57.8406C29.5377 58.2085 29.7345 58.5294 29.9911 58.8031C30.2478 59.0684 30.5473 59.2737 30.8895 59.4192C31.2403 59.5646 31.6253 59.6373 32.0445 59.6373C32.5493 59.6373 32.9814 59.5603 33.3407 59.4063C33.7086 59.2523 34.0166 59.0341 34.2647 58.7518L35.4454 59.9325C35.0262 60.3517 34.5385 60.6768 33.9824 60.9079C33.4263 61.1389 32.7803 61.2544 32.0445 61.2544ZM39.2294 61.2544C38.6049 61.2544 38.0402 61.1132 37.5354 60.8308C37.0392 60.54 36.6413 60.1507 36.3419 59.663C36.051 59.1668 35.9055 58.6149 35.9055 58.0075C35.9055 57.4 36.051 56.8567 36.3419 56.3776C36.6328 55.8899 37.0306 55.5049 37.5354 55.2226C38.0402 54.9317 38.6006 54.7862 39.2166 54.7862C39.8497 54.7862 40.4144 54.9317 40.9106 55.2226C41.4154 55.5049 41.8133 55.8899 42.1042 56.3776C42.3951 56.8567 42.5405 57.4 42.5405 58.0075C42.5405 58.6149 42.3951 59.1668 42.1042 59.663C41.8133 60.1507 41.4154 60.54 40.9106 60.8308C40.4144 61.1132 39.854 61.2544 39.2294 61.2544ZM39.2166 59.6887C39.5332 59.6887 39.8112 59.6202 40.0508 59.4833C40.2989 59.3379 40.4871 59.1411 40.6155 58.893C40.7524 58.6363 40.8208 58.3454 40.8208 58.0203C40.8208 57.6952 40.7524 57.4086 40.6155 57.1604C40.4786 56.9123 40.2903 56.7198 40.0508 56.5829C39.8112 56.4375 39.5332 56.3648 39.2166 56.3648C38.9086 56.3648 38.6348 56.4375 38.3952 56.5829C38.1557 56.7198 37.9675 56.9123 37.8306 57.1604C37.6937 57.4086 37.6252 57.6952 37.6252 58.0203C37.6252 58.3454 37.6937 58.6363 37.8306 58.893C37.9675 59.1411 38.1557 59.3379 38.3952 59.4833C38.6348 59.6202 38.9086 59.6887 39.2166 59.6887ZM46.2152 61.2544C45.6505 61.2544 45.1415 61.1132 44.688 60.8308C44.2346 60.5485 43.8795 60.1635 43.6228 59.6758C43.3662 59.1881 43.2378 58.6406 43.2378 58.0331C43.2378 57.4171 43.3662 56.8653 43.6228 56.3776C43.8795 55.8899 44.2346 55.5049 44.688 55.2226C45.1415 54.9402 45.6505 54.7991 46.2152 54.7991C46.6601 54.7991 47.058 54.8889 47.4088 55.0686C47.7595 55.2482 48.0376 55.5006 48.2429 55.8257C48.4568 56.1423 48.5723 56.5016 48.5894 56.9038V59.1368C48.5723 59.5475 48.4568 59.9111 48.2429 60.2277C48.0376 60.5442 47.7595 60.7966 47.4088 60.9849C47.058 61.1645 46.6601 61.2544 46.2152 61.2544ZM46.5232 59.7015C46.9938 59.7015 47.3745 59.5475 47.6654 59.2395C47.9563 58.9229 48.1018 58.5165 48.1018 58.0203C48.1018 57.6952 48.0333 57.4086 47.8964 57.1604C47.7681 56.9038 47.5841 56.707 47.3446 56.5701C47.1136 56.4246 46.8398 56.3519 46.5232 56.3519C46.2152 56.3519 45.9414 56.4246 45.7019 56.5701C45.4709 56.707 45.2869 56.9038 45.15 57.1604C45.0217 57.4086 44.9575 57.6952 44.9575 58.0203C44.9575 58.354 45.0217 58.6491 45.15 58.9058C45.2869 59.1539 45.4709 59.3507 45.7019 59.4962C45.9414 59.633 46.2152 59.7015 46.5232 59.7015ZM48.0119 61.126V59.4577L48.2814 57.9433L48.0119 56.4546V54.9274H49.6803V61.126H48.0119ZM54.0937 61.2544C53.4605 61.2544 52.8916 61.1132 52.3868 60.8308C51.882 60.5485 51.4842 60.1635 51.1933 59.6758C50.9024 59.1881 50.7569 58.6406 50.7569 58.0331C50.7569 57.4171 50.9024 56.8653 51.1933 56.3776C51.4842 55.8899 51.882 55.5049 52.3868 55.2226C52.9001 54.9317 53.4691 54.7862 54.0937 54.7862C54.5813 54.7862 55.0305 54.8761 55.4412 55.0557C55.8519 55.2354 56.2069 55.4921 56.5064 55.8257L55.4284 56.9166C55.2658 56.7369 55.069 56.6 54.838 56.5059C54.6156 56.4118 54.3674 56.3648 54.0937 56.3648C53.7857 56.3648 53.5076 56.4375 53.2595 56.5829C53.0199 56.7198 52.8274 56.9123 52.682 57.1604C52.5451 57.4 52.4766 57.6866 52.4766 58.0203C52.4766 58.3454 52.5451 58.6363 52.682 58.893C52.8274 59.1411 53.0199 59.3379 53.2595 59.4833C53.5076 59.6202 53.7857 59.6887 54.0937 59.6887C54.376 59.6887 54.6284 59.6416 54.8508 59.5475C55.0818 59.4448 55.2786 59.2994 55.4412 59.1111L56.532 60.202C56.2155 60.5442 55.8519 60.8052 55.4412 60.9849C55.0305 61.1645 54.5813 61.2544 54.0937 61.2544ZM61.6551 61.126V57.5711C61.6551 57.2032 61.5396 56.9038 61.3085 56.6728C61.0775 56.4418 60.7781 56.3263 60.4102 56.3263C60.1706 56.3263 59.9567 56.3776 59.7685 56.4803C59.5803 56.5829 59.4306 56.7284 59.3193 56.9166C59.2167 57.1048 59.1653 57.323 59.1653 57.5711L58.5108 57.2374C58.5108 56.7498 58.6135 56.3263 58.8188 55.9669C59.0242 55.599 59.3065 55.3124 59.6658 55.1071C60.0337 54.9017 60.453 54.7991 60.9235 54.7991C61.3941 54.7991 61.8091 54.9017 62.1684 55.1071C62.5363 55.3124 62.8229 55.5947 63.0283 55.9541C63.2336 56.3134 63.3363 56.7284 63.3363 57.1989V61.126H61.6551ZM57.4841 61.126V51.8473H59.1653V61.126H57.4841Z" fill="black"/>
<rect opacity="0.24" x="85.1799" y="0.0630188" width="1.06947" height="64" fill="black"/>
<path d="M112.828 36.7454C112.804 37.0329 113.019 37.4161 113.403 37.4161H126.001L125.33 41.6794H109.522C107.966 41.6794 107.343 40.2663 107.439 39.404L110.025 22.4467H114.959L112.828 36.7454ZM201.806 36.8413L203.53 24.8897H198.884L196.608 39.8591C196.537 40.7932 197.351 41.6554 198.429 41.6554H212.153L212.799 37.4161H202.333C201.974 37.44 201.782 37.0808 201.806 36.8413ZM219.649 36.8413L221.374 24.8897H216.727L214.452 39.8591C214.38 40.7932 215.194 41.6554 216.272 41.6554H229.996L230.643 37.4161H220.176C219.817 37.44 219.625 37.0808 219.649 36.8413ZM192.034 24.8897L189.447 41.6794H194.285L196.872 24.8897M182.669 22.4467C181.855 22.4467 181.615 22.9975 181.567 23.0934L177.831 32.6019L177.687 32.7217L177.591 32.6019L176.609 23.2371C176.609 23.0934 176.418 22.4467 175.675 22.4467H168.37L165.376 41.6554H170.334L172.202 29.0811L173.879 40.5776C173.999 41.5357 174.717 41.6554 174.981 41.6554H177.496C177.951 41.6554 178.334 41.368 178.597 40.8171L184.154 29.0811L182.262 41.6554H187.411L190.501 22.4467M133.809 30.9014L134.048 31.1888H141.665L141.928 30.9493L142.168 29.3925L141.928 29.1051H134.312L134.072 29.3206L133.809 30.9014ZM132.827 37.1287C132.803 37.2963 132.923 37.4161 133.066 37.4161H145.449L144.778 41.6554H129.33C128.372 41.6554 127.51 40.9848 127.725 39.7393L129.665 27.189C129.881 25.4885 131.174 24.8657 132.036 24.8657H145.665C146.958 24.8657 147.197 25.9435 147.126 26.4225L146.048 33.3923C145.832 34.7815 145.09 35.3563 144.012 35.3563H133.306C133.21 35.3563 133.09 35.4042 133.042 35.6197L132.827 37.1287ZM153.353 29.3206L153.592 29.1051H165.257L165.951 24.8897H151.557C149.976 24.8897 149.233 25.9914 149.114 26.7818L148.012 33.8474C147.892 34.7096 148.635 35.3802 149.377 35.3802H159.389C159.556 35.3802 159.652 35.5239 159.628 35.6677L159.389 37.2245L159.125 37.44H147.461L146.79 41.6794H161.568C162.598 41.6794 163.436 41.0327 163.556 40.1704L164.706 32.7456C164.801 32.075 164.37 31.1888 163.221 31.1888H153.329L153.089 30.9014M238.547 29.3206L238.786 29.1051H250.45L251.145 24.8897H236.75C235.17 24.8897 234.427 25.9914 234.331 26.7818L233.23 33.8474C233.11 34.7096 233.852 35.3802 234.595 35.3802H244.606C244.774 35.3802 244.87 35.5239 244.846 35.6677L244.606 37.2245L244.343 37.44H232.679L232.008 41.6794H246.786C247.816 41.6794 248.63 41.0327 248.774 40.1704L249.924 32.7456C250.019 32.075 249.588 31.1888 248.439 31.1888H238.547L238.307 30.9014" fill="black"/>
</svg>
