<svg width="32" height="24" viewBox="0 0 32 24" fill="none" xmlns="http://www.w3.org/2000/svg">
<path d="M6 8.55273C6.28093 9.00426 6.65384 9.6467 7.02637 10.415C7.78455 11.9789 8.5166 14.0154 8.5166 16.0166C8.51638 17.686 7.32709 18.9189 6 18.9189C4.67295 18.9189 3.4846 17.6859 3.48438 16.0166C3.48438 14.0153 4.21638 11.9789 4.97461 10.415C5.34711 9.64675 5.71908 9.00426 6 8.55273Z" fill="white" stroke="white" stroke-width="1.16129"/>
<path d="M15.6611 7.22852C15.9889 7.75528 16.4238 8.50404 16.8584 9.40039C17.743 11.225 18.5977 13.6005 18.5977 15.9355C18.5976 17.8832 17.2104 19.322 15.6621 19.3223C14.1137 19.3223 12.7266 17.8834 12.7266 15.9355C12.7266 13.6006 13.5802 11.225 14.4648 9.40039C14.8993 8.50431 15.3334 7.75527 15.6611 7.22852Z" fill="white" stroke="white" stroke-width="1.35484"/>
<path d="M26.1777 5.4043C26.5522 6.00626 27.0494 6.86167 27.5459 7.88574C28.5569 9.97088 29.5321 12.686 29.5322 15.3545C29.5322 17.5806 27.9474 19.2256 26.1777 19.2256C24.4082 19.2255 22.8232 17.5806 22.8232 15.3545C22.8233 12.686 23.7986 9.97088 24.8096 7.88574C25.3061 6.86169 25.8032 6.00627 26.1777 5.4043Z" fill="white" stroke="white" stroke-width="1.54839"/>
</svg>
