<svg width="32" height="24" viewBox="0 0 32 24" fill="none" xmlns="http://www.w3.org/2000/svg">
<path d="M6 8.55273C6.28093 9.00426 6.65384 9.6467 7.02637 10.415C7.78455 11.9789 8.5166 14.0154 8.5166 16.0166C8.51638 17.686 7.32709 18.9189 6 18.9189C4.67295 18.9189 3.4846 17.6859 3.48438 16.0166C3.48438 14.0153 4.21638 11.9789 4.97461 10.415C5.34711 9.64675 5.71908 9.00426 6 8.55273Z" fill="white" stroke="white" stroke-width="1.16129"/>
<path d="M15.6611 7.36816C15.9795 7.88605 16.3868 8.59395 16.793 9.43164C17.6756 11.2521 18.5244 13.6165 18.5244 15.9355C18.5244 17.8514 17.1625 19.2498 15.6621 19.25C14.1616 19.25 12.7989 17.8516 12.7988 15.9355C12.7988 13.6165 13.6476 11.2521 14.5303 9.43164C14.9363 8.5942 15.3428 7.88602 15.6611 7.36816Z" stroke="white" stroke-width="1.5"/>
<path d="M26.1865 5.37305C26.5627 5.97654 27.0652 6.84029 27.5674 7.87598C28.579 9.96245 29.5566 12.6808 29.5566 15.3545C29.5566 17.5912 27.9633 19.25 26.1777 19.25C24.3922 19.2499 22.7988 17.5912 22.7988 15.3545C22.7989 12.6809 23.7765 9.96243 24.7881 7.87598C25.2902 6.84036 25.7928 5.97653 26.1689 5.37305C26.1719 5.36835 26.1748 5.36306 26.1777 5.3584C26.1807 5.3631 26.1836 5.36831 26.1865 5.37305Z" stroke="white" stroke-width="1.5"/>
</svg>
