<svg width="32" height="24" viewBox="0 0 32 24" fill="none" xmlns="http://www.w3.org/2000/svg">
<path d="M6 8.55273C6.28093 9.00426 6.65384 9.6467 7.02637 10.415C7.78455 11.9789 8.5166 14.0154 8.5166 16.0166C8.51638 17.686 7.32709 18.9189 6 18.9189C4.67295 18.9189 3.4846 17.6859 3.48438 16.0166C3.48438 14.0153 4.21638 11.9789 4.97461 10.415C5.34711 9.64675 5.71908 9.00426 6 8.55273Z" fill="white" stroke="white" stroke-width="1.16129"/>
<path d="M15.6611 7.22852C15.9889 7.75528 16.4238 8.50404 16.8584 9.40039C17.743 11.225 18.5977 13.6005 18.5977 15.9355C18.5976 17.8832 17.2104 19.322 15.6621 19.3223C14.1137 19.3223 12.7266 17.8834 12.7266 15.9355C12.7266 13.6006 13.5802 11.225 14.4648 9.40039C14.8993 8.50431 15.3334 7.75527 15.6611 7.22852Z" fill="white" stroke="white" stroke-width="1.35484"/>
<path d="M26.1865 5.37305C26.5627 5.97654 27.0652 6.84029 27.5674 7.87598C28.579 9.96245 29.5566 12.6808 29.5566 15.3545C29.5566 17.5912 27.9633 19.25 26.1777 19.25C24.3922 19.2499 22.7988 17.5912 22.7988 15.3545C22.7989 12.6809 23.7765 9.96243 24.7881 7.87598C25.2902 6.84036 25.7928 5.97653 26.1689 5.37305C26.1719 5.36835 26.1748 5.36306 26.1777 5.3584C26.1807 5.3631 26.1836 5.36831 26.1865 5.37305Z" stroke="white" stroke-width="1.5"/>
</svg>
