<svg width="32" height="24" viewBox="0 0 32 24" fill="none" xmlns="http://www.w3.org/2000/svg">
<path d="M22.1366 13.2659C24.8987 13.915 26.6169 14.9722 26.6169 16.085C26.6169 17.8934 22.0165 19.5626 16.0488 19.5626C10.0811 19.5626 5.4807 17.8934 5.4807 16.085C5.4807 14.9815 7.15275 13.9428 9.85944 13.2751L9.15736 11.9583C5.9703 12.8022 4.04883 14.2767 4.04883 16.085C4.04883 18.9969 9.03727 21 16.0488 21C23.0696 21 28.0488 18.9969 28.0488 16.085C28.0488 14.2303 26.0164 12.7187 22.7001 11.8934L22.1366 13.2659ZM22.968 6.82998V8.76817C22.968 12.7744 20.4183 15.5008 16.4737 15.5008H15.6146C11.6608 15.5008 9.12965 12.7929 9.12965 8.76817V6.82998H7.64235V8.76817C7.64235 13.5997 10.8479 16.9938 15.6146 16.9938H16.4737C21.2405 16.9938 24.4553 13.5905 24.4553 8.76817V6.82998H22.968ZM16.0488 10.6507C21.0557 10.6507 24.4553 9.10198 24.4553 6.82998C24.4553 4.54869 21.0649 3 16.0488 3C11.0327 3 7.64235 4.54869 7.64235 6.82998C7.64235 9.10198 11.0419 10.6507 16.0488 10.6507ZM16.0488 9.15766C12.0673 9.15766 9.12965 8.14684 9.12965 6.82998C9.12965 5.51314 12.0673 4.49304 16.0488 4.49304C20.0303 4.49304 22.968 5.51314 22.968 6.82998C22.968 8.14684 20.0303 9.15766 16.0488 9.15766ZM23.4206 12.7744H24.1781C26.3028 12.7744 27.5777 11.6522 27.5777 9.78826C27.5777 7.94281 26.2936 6.81144 24.1781 6.81144H23.5592V8.30449H24.1781C25.379 8.30449 26.0903 8.8609 26.0903 9.78826C26.0903 10.7156 25.379 11.2813 24.1781 11.2813H23.4206V12.7744Z" fill="white"/>
</svg>
